<?xml version="1.0" encoding="UTF-8" standalone="no"?>
<!-- Svg Vector Icons : http://www.onlinewebfonts.com/icon -->

<svg
   xmlns:dc="http://purl.org/dc/elements/1.1/"
   xmlns:cc="http://creativecommons.org/ns#"
   xmlns:rdf="http://www.w3.org/1999/02/22-rdf-syntax-ns#"
   xmlns:svg="http://www.w3.org/2000/svg"
   xmlns="http://www.w3.org/2000/svg"
   xmlns:sodipodi="http://sodipodi.sourceforge.net/DTD/sodipodi-0.dtd"
   xmlns:inkscape="http://www.inkscape.org/namespaces/inkscape"
   version="1.1"
   x="0px"
   y="0px"
   viewBox="0 0 1000 500"
   enable-background="new 0 0 1000 1000"
   xml:space="preserve"
   id="svg2767"
   sodipodi:docname="logo_frame.svg"
   width="1000"
   height="500"
   inkscape:version="0.92.4 (f8dce91, 2019-08-02)"
   inkscape:export-filename="/home/student11/Documents/CSS/Tailwind/img/logo.svg.png"
   inkscape:export-xdpi="96"
   inkscape:export-ydpi="96"><defs
   id="defs2771" /><sodipodi:namedview
   pagecolor="#ffffff"
   bordercolor="#666666"
   borderopacity="1"
   objecttolerance="10"
   gridtolerance="10"
   guidetolerance="10"
   inkscape:pageopacity="0"
   inkscape:pageshadow="2"
   inkscape:window-width="1323"
   inkscape:window-height="713"
   id="namedview2769"
   showgrid="false"
   inkscape:zoom="0.472"
   inkscape:cx="404.1721"
   inkscape:cy="233.41853"
   inkscape:window-x="43"
   inkscape:window-y="27"
   inkscape:window-maximized="1"
   inkscape:current-layer="g818" />
<metadata
   id="metadata2759"> Svg Vector Icons : http://www.onlinewebfonts.com/icon <rdf:RDF><cc:Work
     rdf:about=""><dc:format>image/svg+xml</dc:format><dc:type
       rdf:resource="http://purl.org/dc/dcmitype/StillImage" /><dc:title></dc:title></cc:Work></rdf:RDF></metadata>
<g
   id="g2763"
   transform="translate(0,-500)"><g
   id="g818"
   style="fill:#bec1fc"><path
   style="fill:#bec1fc;stroke-width:0.82386482"
   inkscape:connector-curvature="0"
   d="m 740.5142,577.44468 c 0.17061,1.09219 0.34306,2.18425 0.50586,3.2771 0.29963,2.20446 0.56602,4.41032 0.83594,6.61653 0.2724,2.2393 0.51881,4.48005 0.69531,6.7239 0.17031,2.08643 0.32216,4.17419 0.43164,6.26255 0.1231,2.0328 0.24885,4.06521 0.30469,6.09951 0.0688,1.83236 0.14105,3.66536 0.21484,5.49763 0.0721,1.87575 0.12464,3.7511 0.12891,5.62756 0.0193,1.64095 0.0385,3.28133 0.0606,4.92228 0.0211,1.5665 0.0422,3.13309 0.0664,4.69957 0.0227,1.46783 0.0483,2.93614 0.0742,4.40394 0.008,0.44541 0.0172,0.89086 0.0254,1.3363 69.90739,28.5292 129.12234,68.33613 177.54879,119.36116 -43.56428,45.54297 -97.0605,82.80988 -160.47266,111.7159 0.005,0.24747 0.0107,0.4949 0.0156,0.74238 0.0311,1.57159 0.0591,3.14254 0.0859,4.71416 0.0511,1.82887 0.0188,3.65816 -0.0117,5.48703 -0.0311,1.76177 -0.0607,3.52374 -0.0899,5.28553 -0.0304,1.84542 -0.0593,3.69063 -0.0859,5.53608 -0.0541,2.09622 -0.14857,4.19202 -0.23243,6.28775 -0.066,2.15453 -0.20292,4.30712 -0.33593,6.46009 -0.16228,2.21578 -0.3584,4.43064 -0.54102,6.64568 -0.17597,2.13572 -0.33765,4.27204 -0.49609,6.40839 -0.16078,2.18019 -0.31083,4.3604 -0.46094,6.54095 -0.0609,0.89388 -0.11664,1.78792 -0.17578,2.68187 5.35115,-1.98462 10.68455,-4.03315 16,-6.14855 86.2,-34.27704 154.90039,-79.82138 205.90039,-136.76879 7.30042,-8.62017 10.90046,-17.17193 10.90046,-25.58847 0,-8.41654 -3.60039,-16.96936 -10.90039,-25.65741 -51,-56.60802 -119.70039,-102.15184 -205.90039,-136.56463 -11.28256,-4.49901 -22.64815,-8.69618 -34.0918,-12.60599 z m -478.30469,0.0199 c -11.41662,3.90404 -22.75203,8.0949 -34.00195,12.5861 -86.2,34.41279 -154.800389,79.95766 -205.900389,136.63357 -7.3,8.62015 -10.900391,17.17192 -10.900391,25.58846 0,8.41654 3.600391,16.9683 10.900391,25.58847 51.1,56.6759 119.700389,102.22078 205.900389,136.63357 6.64868,2.65122 13.32865,5.18806 20.0332,7.63465 0.011,-0.81483 0.0217,-1.62965 0.0332,-2.44458 0.0311,-2.20338 0.0631,-4.40652 0.0977,-6.60988 0.0338,-2.14459 0.0677,-4.29035 0.10547,-6.4349 0.0367,-2.08077 0.0761,-4.16063 0.11719,-6.24135 0.0399,-2.01151 0.08,-4.02307 0.125,-6.03454 0.0434,-1.93641 0.0876,-3.87283 0.13672,-5.80918 0.0472,-1.85372 0.097,-3.70763 0.15039,-5.56127 0.0483,-1.67895 0.10023,-3.35857 0.14062,-5.03762 0.0289,-1.53704 -0.005,-3.07363 -0.002,-4.61075 -0.01,-1.38279 -0.0377,-2.76484 -0.11719,-4.14676 -0.0307,-0.6823 -0.0668,-1.36455 -0.0996,-2.04686 C 182.42082,837.82 126.57652,799.49406 81.40678,752.27271 c 46.14185,-48.61785 102.07425,-87.05548 167.7207,-115.25417 -0.18167,-0.57007 -0.32711,-1.07254 -0.52539,-1.67302 -0.23698,-0.71769 4.10623,-2.54497 7.85157,-3.9784 -0.87451,-0.67944 2.99521,-1.70065 4.58984,-2.17412 1.42235,-0.42233 2.8817,-0.79324 4.35547,-1.13613 -0.11085,-1.08481 -0.22301,-2.16964 -0.32617,-3.25456 -0.15116,-1.60196 -0.29105,-3.20441 -0.42774,-4.80696 -0.13659,-1.61854 -0.26559,-3.23703 -0.39062,-4.856 -0.12445,-1.61464 -0.24244,-3.22912 -0.35743,-4.84407 -0.11471,-1.62722 -0.22492,-3.25502 -0.33007,-4.88252 -0.1056,-1.63055 -0.20416,-3.26098 -0.30078,-4.89179 -0.0978,-1.64719 -0.18699,-3.29476 -0.2754,-4.94218 -0.0908,-1.69348 -0.17484,-3.38766 -0.25586,-5.08137 -0.084,-1.76015 -0.15882,-3.51985 -0.23242,-5.28021 -0.0768,-1.8422 -0.14675,-3.68447 -0.21484,-5.52681 -0.0272,-0.74183 -0.0521,-1.48385 -0.0781,-2.22583 z m 412.35157,3.71325 c -0.007,6.8e-4 -0.2223,0.54868 -0.27539,0.66947 0.0995,-0.22789 0.61134,-0.71425 0.27539,-0.66947 z m -27.87891,11.4712 c -0.005,0.002 -0.009,0.003 -0.0137,0.006 -0.0336,0.0461 -0.068,0.0918 -0.10156,0.13786 0.0406,-0.0468 0.076,-0.0958 0.11523,-0.14317 z m -381.11328,37.08353 c -0.3199,0.28295 -0.64217,0.5694 -1.00391,0.9134 0.2226,-0.0882 0.4432,-0.17849 0.66602,-0.26646 0.10772,-0.16629 0.2356,-0.33228 0.35351,-0.49847 -0.005,-0.0494 -0.0102,-0.099 -0.0156,-0.14847 z m 288.75195,286.84486 c -1.01939,0.0776 -2.0393,0.15361 -3.06054,0.22669 0.26748,0.0332 1.08033,0.0747 2.02343,0.11401 0.0726,-0.0229 0.10415,-0.0355 0.19141,-0.0623 0.28444,-0.0892 0.56276,-0.18705 0.8457,-0.27839 z"
   id="path2761" /><text
   transform="scale(0.67834957,1.4741662)"
   id="text3536"
   y="569.28198"
   x="305.87256"
   style="font-style:normal;font-weight:normal;font-size:131.72129822px;line-height:1.25;font-family:sans-serif;letter-spacing:0px;word-spacing:0px;fill:#bec1fc;fill-opacity:1;stroke:none;stroke-width:1.3720969"
   xml:space="preserve"><tspan
     style="font-style:normal;font-variant:normal;font-weight:bold;font-stretch:normal;font-size:171.45420837px;font-family:sans-serif;-inkscape-font-specification:'sans-serif Bold';fill:#bec1fc;stroke-width:1.3720969"
     y="569.28198"
     x="305.87256"
     id="tspan3534"
     sodipodi:role="line">IZOCODE</tspan></text>


</g>
</g>
</svg>