<?xml version="1.0" encoding="UTF-8" standalone="no"?>
<!-- Svg Vector Icons : http://www.onlinewebfonts.com/icon -->

<svg
   xmlns:dc="http://purl.org/dc/elements/1.1/"
   xmlns:cc="http://creativecommons.org/ns#"
   xmlns:rdf="http://www.w3.org/1999/02/22-rdf-syntax-ns#"
   xmlns:svg="http://www.w3.org/2000/svg"
   xmlns="http://www.w3.org/2000/svg"
   xmlns:sodipodi="http://sodipodi.sourceforge.net/DTD/sodipodi-0.dtd"
   xmlns:inkscape="http://www.inkscape.org/namespaces/inkscape"
   version="1.1"
   x="0px"
   y="0px"
   viewBox="0 0 1000 500"
   enable-background="new 0 0 1000 1000"
   xml:space="preserve"
   id="svg3777"
   sodipodi:docname="logo2.svg"
   inkscape:version="0.92.4 (f8dce91, 2019-08-02)"
   width="1000"
   height="500"><defs
   id="defs3781" /><sodipodi:namedview
   pagecolor="#ffffff"
   bordercolor="#666666"
   borderopacity="1"
   objecttolerance="10"
   gridtolerance="10"
   guidetolerance="10"
   inkscape:pageopacity="0"
   inkscape:pageshadow="2"
   inkscape:window-width="1323"
   inkscape:window-height="713"
   id="namedview3779"
   showgrid="false"
   showguides="false"
   inkscape:zoom="0.532"
   inkscape:cx="386.51946"
   inkscape:cy="125.59888"
   inkscape:window-x="43"
   inkscape:window-y="27"
   inkscape:window-maximized="1"
   inkscape:current-layer="g3775" />
<metadata
   id="metadata3767"> Svg Vector Icons : http://www.onlinewebfonts.com/icon <rdf:RDF><cc:Work
     rdf:about=""><dc:format>image/svg+xml</dc:format><dc:type
       rdf:resource="http://purl.org/dc/dcmitype/StillImage" /><dc:title></dc:title></cc:Work></rdf:RDF></metadata>
<g
   id="g3775"
   transform="translate(0,-500)"><path
     inkscape:connector-curvature="0"
     id="path3769"
     style="fill:#c2c3e6;fill-opacity:1;stroke-width:0.08753917"
     d="m 502.33203,511.125 c -2.59345,0.28856 -15.02188,5.76012 -29.09961,12.67969 -66.26877,32.40208 -268.0843,131.12271 -353.50195,173.02343 -51.43817,25.02122 -94.239753,45.66602 -95.363282,45.66602 -0.937904,0 -1.691407,0.60384 -1.691407,1.50586 0,0.75299 1.124352,1.50586 2.628907,1.50586 1.318926,0 109.070842,52.15314 239.361332,115.90625 l 236.73242,115.9043 164.82617,-80.63282 c 90.47842,-44.30873 165.76507,-80.93768 167.07422,-81.38476 1.69019,-0.60396 5.92966,-3.84675 5.92969,101.20312 v 6.09375 l 28.20703,-28.19726 26.35937,26.3164 V 874.8125 l 2.02149,-90.86523 38.86523,-18.83985 c 21.4057,-10.40067 40.35857,-18.98902 42.23438,-19.29492 3.38036,-0.60396 4.50331,-3.31836 1.31836,-3.31836 -0.93791,0 -107.94617,-51.84573 -237.47461,-115.30078 C 611.03593,563.73831 504.02596,511.44457 502.7168,511.13867 c -0.083,-0.0279 -0.21187,-0.0329 -0.38477,-0.0137 z m -1.12891,56.55078 c 1.31892,-0.008 83.17053,39.47707 181.53321,87.5586 98.55807,48.23053 179.10156,88.02103 179.10156,88.625 -0.18563,1.50597 -357.44011,175.58789 -360.44922,175.58789 -3.75161,0 -360.44751,-174.38074 -359.88086,-175.88672 0.56665,-1.65501 356.6862,-175.73574 359.69531,-175.88477 z" /><path
     inkscape:connector-curvature="0"
     d="m 429.94458,696.09573 -85.17962,46.67871 85.17962,46.65482 c 9.50806,5.20777 9.50806,13.68828 0,18.89605 -4.7976,2.62777 -10.99089,3.91776 -17.27141,3.91776 -6.28052,0 -12.47386,-1.28999 -17.27146,-3.91776 L 292.99422,752.21052 c -4.57956,-2.50833 -7.15283,-5.90053 -7.15283,-9.43608 0,-3.53553 2.57327,-6.95162 7.15283,-9.45996 l 102.4511,-56.11479 c 9.50804,-5.20774 24.99128,-5.20774 34.49926,0 9.50806,5.20777 9.50806,13.66441 0,18.89604 z m 276.16879,37.21875 -102.4511,-56.13867 c -9.50803,-5.20777 -24.99128,-5.20777 -34.49928,0 -9.50803,5.20777 -9.50803,13.68829 0,18.89604 l 85.17964,46.67871 -85.17964,46.65481 c -9.50803,5.20777 -9.50803,13.6883 0,18.89605 4.79761,2.62777 10.99091,3.91776 17.27142,3.91776 6.23691,0 12.47387,-1.28999 17.27147,-3.91776 L 706.157,752.18663 c 4.57957,-2.50832 7.15282,-5.90053 7.15282,-9.45996 -0.0437,-3.48776 -2.61687,-6.90385 -7.19645,-9.41219 z M 529.39823,671.06919 c -13.12807,-1.83944 -28.52207,9.07276 -31.83679,16.21551 l -37.99947,93.96145 c -3.31471,7.14276 -4.00459,26.66428 9.0362,28.50372 2.04988,0.28666 8.32648,0.43001 10.33277,0.43001 10.90365,0 15.46637,-8.74317 18.30132,-14.76313 l 42.22613,-97.72621 c 3.40194,-7.16665 2.98063,-24.80579 -10.06016,-26.62135 z"
     id="path3875"
     style="fill:#d6d7ef;fill-opacity:1;stroke-width:0.32278544"
     sodipodi:nodetypes="ccscsccssscccccccccsccccccccsccc" /><g
     id="g3879"
     transform="matrix(0.76793837,0,0,0.47709648,67.578889,979.58691)" /><g
     id="g3881"
     transform="matrix(0.76793837,0,0,0.47709648,67.578889,979.58691)" /><g
     id="g3883"
     transform="matrix(0.76793837,0,0,0.47709648,67.578889,979.58691)" /><g
     id="g3885"
     transform="matrix(0.76793837,0,0,0.47709648,67.578889,979.58691)" /><g
     id="g3887"
     transform="matrix(0.76793837,0,0,0.47709648,67.578889,979.58691)" /><g
     id="g3889"
     transform="matrix(0.76793837,0,0,0.47709648,67.578889,979.58691)" /><g
     id="g3891"
     transform="matrix(0.76793837,0,0,0.47709648,67.578889,979.58691)" /><g
     id="g3893"
     transform="matrix(0.76793837,0,0,0.47709648,67.578889,979.58691)" /><g
     id="g3895"
     transform="matrix(0.76793837,0,0,0.47709648,67.578889,979.58691)" /><g
     id="g3897"
     transform="matrix(0.76793837,0,0,0.47709648,67.578889,979.58691)" /><g
     id="g3899"
     transform="matrix(0.76793837,0,0,0.47709648,67.578889,979.58691)" /><g
     id="g3901"
     transform="matrix(0.76793837,0,0,0.47709648,67.578889,979.58691)" /><g
     id="g3903"
     transform="matrix(0.76793837,0,0,0.47709648,67.578889,979.58691)" /><g
     id="g3905"
     transform="matrix(0.76793837,0,0,0.47709648,67.578889,979.58691)" /><g
     id="g3907"
     transform="matrix(0.76793837,0,0,0.47709648,67.578889,979.58691)" /><ellipse
     id="path4453"
     cx="865.08264"
     cy="951.13947"
     rx="31.05267"
     ry="35.943237"
     style="fill:#c2c3e6;fill-opacity:1" /><g
     id="g5537"
     transform="matrix(0.05511737,0,0,-0.05103065,194.39803,728.40008)"
     style="fill:#c2c3e6;fill-opacity:1"><path
       id="path5533"
       d="M 5239.8201,2992.3174 C 3900.7358,2859.3324 2672.1125,2292.8801 1535.9917,1284.8321 1035.5293,840.7049 514.73662,274.11923 217.23764,-151.35293 L 100,-318.98337 212.71981,-515.79591 C 699.62874,-1366.8735 1569.8754,-2244.6013 2440.0091,-2760.5513 c 1665.9491,-989.3927 3993.3876,-954.0378 5826.1575,-185.4428 1176.6683,492.2312 2140.5804,1299.9586 2785.2744,2401.0161 l 117.238,199.47757 -166.821,233.98971 c -225.44,316.4724 -712.348,869.73278 -1039.2134,1180.87512 -1086.5376,1031.9 -2225.0303,1646.3228 -3449.1358,1859.1256 -302.1298,53.1673 -1025.6599,87.6795 -1273.6887,63.8274 z M 6788.416,2350.2159 C 7388.0448,2227.8909 8931.9185,1429.8347 9435.3589,904.69018 10133.075,143.28254 10465.832,-306.83005 10122.46,-912.0212 9522.8309,-2332.2161 5674.5835,-3291.1505 4316.5579,-2902.0538 2457.2133,-2329.6364 1182.7538,-1479.1127 1051.9626,-596.18805 824.26409,930.3416 3590.5688,2264.3873 5246.5968,2463.0423 c 566.3566,78.9292 1314.1207,-64.9891 1541.8192,-112.8264 z"
       inkscape:connector-curvature="0"
       style="fill:#c2c3e6;fill-opacity:1;stroke-width:1.22679222"
       sodipodi:nodetypes="cccccccccccccccccccc" /></g><path
     style="fill:#c2c3e6;fill-opacity:1"
     id="path836"
     d="m 493.60991,557.59212 c 3.26158,0.72341 6.43952,1.3895 9.26483,3.24169 2.91194,1.6452 4.51072,4.73233 6.29254,7.43271 1.41,2.00746 3.5871,2.09633 5.62678,2.95213 2.6474,0.94018 5.43827,1.21636 8.22277,1.36848 2.33817,-0.05 4.51086,-1.17088 6.87841,-1.52253 2.21959,-0.34997 4.48311,-0.29904 6.72492,-0.33924 0.36374,10e-4 0.72748,0.002 1.09122,0.003 0,0 -22.55453,16.42661 -22.55453,16.42661 v 0 c -0.36095,0.009 -0.72191,0.0189 -1.08287,0.0283 -2.15356,0.0584 -4.30556,0.20459 -6.40609,0.71763 -2.41048,0.62519 -4.74,1.3476 -7.2575,0.83749 -2.97361,-0.30741 -5.89886,-0.89064 -8.71114,-1.93279 -2.67972,-0.80178 -4.86322,-2.2196 -6.52068,-4.52514 -1.53804,-2.41458 -2.93323,-4.99332 -5.63014,-6.30534 -2.64134,-1.28359 -5.56125,-1.98529 -8.50388,-1.98853 0,0 22.56536,-16.39469 22.56536,-16.39469 z"
     inkscape:connector-curvature="0" /><path
     style="fill:#c2c3e6;fill-opacity:1"
     id="path838"
     d="m 495.48961,903.45679 c 4.85949,0.1521 9.72299,0.13071 14.58439,0.12688 4.59871,-0.0161 9.19737,-0.042 13.79609,-0.0557 3.8551,0.11896 7.74936,-0.34622 11.55496,0.34848 3.37557,0.46663 6.54471,1.62847 9.83447,2.43979 2.45141,0.58012 4.9632,0.71491 7.46027,0.95189 12.11403,17.60245 -19.95188,16.37539 -29.17607,16.29837 -3.91158,-0.0224 -7.82325,-0.0195 -11.73488,-0.0188 -3.76433,-0.16287 -7.59363,0.38787 -11.30114,-0.35736 -2.89876,-0.98023 -6.09304,-0.70957 -8.92338,-1.80757 -2.10997,-0.9529 -4.33448,-1.30821 -6.62284,-1.46635 -2.41597,-0.11902 -4.83546,-0.0937 -7.25337,-0.0923 -2.40385,-0.14754 -4.907,0.4465 -7.17639,-0.44313 0,0 22.94063,-15.91173 22.94063,-15.91173 v 0 c 2.26042,-0.0584 4.52194,0.004 6.7828,-0.0183 2.48753,0.0132 4.98159,0.0368 7.45428,0.33882 2.36272,0.37958 4.61554,1.0702 6.86786,1.86825 2.86765,0.49436 5.73236,0.99954 8.59362,1.52867 3.66996,0.21596 7.35289,0.0268 11.02739,0.0962 3.91706,0.006 7.83413,0.0169 11.7512,0.0101 1.70788,-0.009 3.42759,0.0215 5.13375,-0.0743 0.36435,-0.0205 1.38935,-0.31137 1.08993,-0.10276 -23.05432,16.06187 -28.45455,7.87748 -22.37757,16.34371 -2.46305,-0.44975 -4.95621,-0.74567 -7.37312,-1.42876 -3.16117,-0.87411 -6.32876,-1.71637 -9.58854,-2.14942 -3.7739,-0.19064 -7.55582,-0.0456 -11.33331,-0.10121 -4.5476,-0.0137 -9.09514,-0.0396 -13.64273,-0.0557 -4.97787,-0.004 -9.95755,-0.0212 -14.93366,0.12688 0,0 22.56536,-16.39469 22.56536,-16.39469 z"
     inkscape:connector-curvature="0" /><path
     style="fill:#c2c3e6;fill-opacity:1"
     id="path840"
     d="m 473.08955,891.27152 c 3.07091,1.50021 6.346,2.68859 9.64262,3.61719 3.81775,0.55719 7.55013,1.42322 11.33773,2.1534 3.73463,0.63351 7.44113,0.33772 10.92619,1.94628 0,0 -23.01619,15.48987 -23.01619,15.48987 v 0 c -3.46564,-0.94811 -7.12983,-0.72441 -10.62016,-1.62153 -3.82628,-0.81582 -7.70563,-1.35322 -11.48209,-2.37762 -3.42696,-1.12651 -6.85391,-2.31004 -10.11582,-3.85878 0,0 23.32772,-15.34881 23.32772,-15.34881 z"
     inkscape:connector-curvature="0" /></g>
</svg>